<svg xmlns="http://www.w3.org/2000/svg" xmlns:xlink="http://www.w3.org/1999/xlink" width="36px" height="55px" viewBox="205.322 50.39 58.3532 89.1508" preserveAspectRatio="xMidYMid meet" zoomAndPan="disable"  ><defs id="svgEditorDefs"><path id="svgEditorClosePathDefs" stroke="black" fill="khaki" style="stroke-width: 1px; vector-effect: non-scaling-stroke;"/></defs><rect id="svgEditorBackground" x="205.32235145568848" y="50.39004373550415" width="58.35322952270508" height="89.15076732635498" style="stroke: none; fill: none;"/><circle id="e1_circle" cx="234.58372497558594" cy="79.18069458007812" style="stroke-width: 0px; vector-effect: non-scaling-stroke; fill-opacity: 1;" r="28.4698" fill="navy" stroke="#006900"/><polyline stroke="black" id="e6_polyline" style="fill: none; stroke-width: 1px; vector-effect: non-scaling-stroke;" points="173.273 80.3063"/><polyline id="e7_polyline" style="stroke-width: 1px; vector-effect: non-scaling-stroke;" points="208.333 90.3243 234.742 139.367 260.75 90.4018" fill="navy"/><circle id="e10_circle" cx="234.1611328125" cy="77.68836975097656" style="stroke-width: 1px; vector-effect: non-scaling-stroke; stroke: none;" r="18.0347" fill="white" transform="matrix(1.07736 0 0 1.07736 -17.6926 -5.18708)"/><circle id="e2_circle" cx="227.06738281249997" cy="67.5051498413086" style="stroke-width: 1px; vector-effect: non-scaling-stroke;" r="3.07489" fill="blueviolet"/><rect x="231.8288269042969" y="65.97949981689453" id="e12_rectangle" style="stroke-width: 1px; vector-effect: non-scaling-stroke;" width="15.827828488318772" height="9.72553316752115" fill="blueviolet"/><path d="M-7.566945976570693,-19.535626316690326v-1.5a2,2,0,0,0,-2,-2h-4a2,2,0,0,0,-2,2v3a2,2,0,0,0,2,2h4a2,2,0,0,0,2,-2Z" stroke="white" id="e9_shape" style="vector-effect: non-scaling-stroke; stroke-width: 1px;" transform="matrix(0.739988 0.778847 -0.30269 0.287869 234.8 89.9753)" fill="blueviolet"/><path d="M4,0v-1.5a2,2,0,0,0,-2,-2h-4a2,2,0,0,0,-2,2v3a2,2,0,0,0,2,2h4a2,2,0,0,0,2,-2Z" id="e3_shape" style="vector-effect: non-scaling-stroke; stroke-width: 1px;" transform="matrix(0.88532 0 0 1.60483 227.061 77.5643)" fill="blueviolet"/><path d="M4.526887191950863,-14.774689186050274v-1.5a2,2,0,0,0,-2,-2h-4a2,2,0,0,0,-2,2v3a2,2,0,0,0,1.9999999999999996,2h3.9999999999999996a2,2,0,0,0,2.000000000000001,-2Z" stroke="white" id="e7_shape" style="vector-effect: non-scaling-stroke; stroke-width: 1px;" transform="matrix(0.000258972 1.72055 -0.506874 0.00045934 221.395 84.8985)" fill="blueviolet"/><path d="M-6.829159998520261,-17.940660915993213v-1.5a2,2,0,0,0,-2,-2h-4a2,2,0,0,0,-2,2v3a2,2,0,0,0,2,2h4a2,2,0,0,0,2,-2Z" id="e10_shape" style="vector-effect: non-scaling-stroke; stroke-width: 1px;" transform="matrix(-0.45059 0.372939 -0.145091 -0.175127 228.188 78.0503)" fill="blueviolet"/><rect x="237.931" y="75.3237" stroke="white" id="e11_rectangle" style="stroke-width: 1px; vector-effect: non-scaling-stroke;" width="8.00926" height="0.57209" fill="fuchsia" ry="0" rx="0" transform="matrix(0.480501 -0.876994 0.876994 0.480501 57.0876 248.023)"/><path d="M4.399572113016111,-7.561116832239094v-1.5a2,2,0,0,0,-1.9999999999999996,-2h-4a2,2,0,0,0,-2,2v3a2,2,0,0,0,2,2h4a2,2,0,0,0,1.9999999999999996,-2Z" stroke="white" id="e15_shape" style="vector-effect: non-scaling-stroke; stroke-width: 1px;" transform="matrix(0.000261588 1.72055 -0.511996 0.00045934 221.461 84.8985)" fill="blueviolet"/><path d="M4.066702527485461,0.6998738864655301v-1.500000000000004a2,2,0,0,0,-2,-2.0000000000000018h-4a2,2,0,0,0,-2,2.000000000000003v3a2,2,0,0,0,2,1.9999999999999978h4a2,2,0,0,0,2,-2Z" id="e14_shape" style="vector-effect: non-scaling-stroke; stroke-width: 1px;" transform="matrix(0.878904 0 0 0.557201 227.033 79.8182)" fill="blueviolet"/><path d="M-7.17103716516835,-3.9796003718763373v-1.5a2,2,0,0,0,-2,-2h-4a2,2,0,0,0,-2,2v3a2,2,0,0,0,2,2h4a2,2,0,0,0,2,-2Z" id="e8_shape" style="vector-effect: non-scaling-stroke; stroke-width: 1px;" transform="matrix(0.000213421 1.07433 -0.41772 0.000286816 222.28 88.3471)" fill="blueviolet" stroke="white"/><path d="M2.8441768512195083,-6.56375551870844v-1.5a2,2,0,0,0,-1.9999999999999996,-2h-4a2,2,0,0,0,-2.0000000000000004,2v3a2,2,0,0,0,2,2h4a2,2,0,0,0,1.9999999999999998,-2Z" id="e13_shape" style="vector-effect: non-scaling-stroke; stroke-width: 1px;" transform="matrix(-0.983569 -0.0109213 0.00403009 -0.419473 225.805 70.2325)" fill="blueviolet"/></svg>