<svg xmlns="http://www.w3.org/2000/svg" xmlns:xlink="http://www.w3.org/1999/xlink" width="24px" height="24px" viewBox="0 0 24 24" preserveAspectRatio="xMidYMid meet" zoomAndPan="disable" ><defs id="svgEditorDefs"><path id="svgEditorClosePathDefs" stroke="black" fill="khaki" style="stroke-width: 1px; vector-effect: non-scaling-stroke;"/></defs><rect id="svgEditorBackground" x="205.32235145568848" y="50.39004373550415" width="58.35322952270508" height="89.15076732635498" style="stroke: none; fill: none;"/><g id="e24_group" transform="matrix(0.810494 0 0 0.810494 -0.139409 -0.139409)"><circle id="e7_circle" cx="14.9697" cy="14.9697" stroke="blueviolet" style="stroke-width: 1px; vector-effect: non-scaling-stroke;" r="14.0752" fill="white"/><circle id="e2_circle" cx="227.2682647705078" cy="66.94629669189453" style="stroke-width: 1px; vector-effect: non-scaling-stroke;" r="3.07489" fill="blueviolet" transform="matrix(0.594441 0 0 0.642423 -124.504 -35.8605)"/><rect x="231.829" y="65.9795" id="e12_rectangle" style="stroke-width: 1px; vector-effect: non-scaling-stroke;" width="15.8278" height="9.72553" fill="blueviolet" transform="matrix(0.594441 0 0 0.642423 -124.504 -35.8605)" ry="0" rx="0"/><rect x="237.931" y="75.3237" stroke="white" id="e11_rectangle" style="stroke-width: 1px; vector-effect: non-scaling-stroke;" width="8.00926" height="0.57209" fill="fuchsia" ry="0" rx="0" transform="matrix(0.28563 -0.563401 0.521321 0.308685 -90.5688 123.475)"/><path d="M-7.566945976570693,-19.535626316690326v-1.5a2,2,0,0,0,-2,-2h-4a2,2,0,0,0,-2,2v3a2,2,0,0,0,2,2h4a2,2,0,0,0,2,-2Z" stroke="white" id="e9_shape" style="vector-effect: non-scaling-stroke; stroke-width: 1px;" transform="matrix(0.439879 0.550263 -0.179931 0.203382 15.1308 22.7248)" fill="blueviolet"/><path d="M4,0v-1.5a2,2,0,0,0,-2,-2h-4a2,2,0,0,0,-2,2v3a2,2,0,0,0,2,2h4a2,2,0,0,0,2,-2Z" id="e3_shape" style="vector-effect: non-scaling-stroke; stroke-width: 1px;" transform="matrix(0.52627 0 0 1.13383 10.5304 13.9563)" fill="blueviolet"/><path d="M4.526887191950863,-14.774689186050274v-1.5a2,2,0,0,0,-2,-2h-4a2,2,0,0,0,-2,2v3a2,2,0,0,0,1.9999999999999996,2h3.9999999999999996a2,2,0,0,0,2.000000000000001,-2Z" stroke="white" id="e7_shape" style="vector-effect: non-scaling-stroke; stroke-width: 1px;" transform="matrix(0.000153943 1.21558 -0.301307 0.000324528 7.16232 19.138)" fill="blueviolet"/><path d="M-6.829159998520261,-17.940660915993213v-1.5a2,2,0,0,0,-2,-2h-4a2,2,0,0,0,-2,2v3a2,2,0,0,0,2,2h4a2,2,0,0,0,2,-2Z" id="e10_shape" style="vector-effect: non-scaling-stroke; stroke-width: 1px;" transform="matrix(-0.267849 0.263485 -0.0862481 -0.123729 11.2004 14.2996)" fill="blueviolet"/><path d="M4.399572113016111,-7.561116832239094v-1.5a2,2,0,0,0,-1.9999999999999996,-2h-4a2,2,0,0,0,-2,2v3a2,2,0,0,0,2,2h4a2,2,0,0,0,1.9999999999999996,-2Z" stroke="white" id="e15_shape" style="vector-effect: non-scaling-stroke; stroke-width: 1px;" transform="matrix(0.000155498 1.23455 -0.304351 0.000329591 7.20155 19.2152)" fill="blueviolet"/><path d="M4.066702527485461,0.6998738864655301v-1.500000000000004a2,2,0,0,0,-2,-2.0000000000000018h-4a2,2,0,0,0,-2,2.000000000000003v3a2,2,0,0,0,2,1.9999999999999978h4a2,2,0,0,0,2,-2Z" id="e14_shape" style="vector-effect: non-scaling-stroke; stroke-width: 1px;" transform="matrix(0.522456 0 0 0.393668 10.5138 15.5487)" fill="blueviolet"/><path d="M-7.17103716516835,-3.9796003718763373v-1.5a2,2,0,0,0,-2,-2h-4a2,2,0,0,0,-2,2v3a2,2,0,0,0,2,2h4a2,2,0,0,0,2,-2Z" id="e8_shape" style="vector-effect: non-scaling-stroke; stroke-width: 1px;" transform="matrix(0.000126866 0.759025 -0.24831 0.000202638 7.6884 21.5744)" fill="blueviolet" stroke="white"/><path d="M2.8441768512195083,-6.56375551870844v-1.5a2,2,0,0,0,-1.9999999999999996,-2h-4a2,2,0,0,0,-2.0000000000000004,2v3a2,2,0,0,0,2,2h4a2,2,0,0,0,1.9999999999999998,-2Z" id="e13_shape" style="vector-effect: non-scaling-stroke; stroke-width: 1px;" transform="matrix(-0.584674 -0.00771601 0.00239565 -0.296362 9.7838 8.77632)" fill="blueviolet"/></g><polyline stroke="black" id="e6_polyline" style="fill: none; stroke-width: 1px; vector-effect: non-scaling-stroke;" points="173.273 80.3063" transform="matrix(1 0 0 1 -131.879 -31.0303)"/></svg>