<svg xmlns="http://www.w3.org/2000/svg" xmlns:xlink="http://www.w3.org/1999/xlink" width="24px" height="24px" viewBox="0 0 24 24" preserveAspectRatio="xMidYMid meet" zoomAndPan="disable" ><defs id="svgEditorDefs"><path id="svgEditorClosePathDefs" stroke="black" fill="khaki" style="stroke-width: 1px; vector-effect: non-scaling-stroke;"/></defs><rect id="svgEditorBackground" x="205.32235145568848" y="50.39004373550415" width="58.35322952270508" height="89.15076732635498" style="stroke: none; fill: none;"/><polyline stroke="black" id="e6_polyline" style="fill: none; stroke-width: 1px; vector-effect: non-scaling-stroke;" points="173.273 80.3063"/><g id="e17_group" transform="matrix(0.583207 0 0 0.583207 -124.684 -33.6932)"><circle id="e10_circle" cx="234.16114587266085" cy="77.68839263916016" style="stroke-width: 1px; vector-effect: non-scaling-stroke; fill: none;" r="18.0347" transform="matrix(1.07736 0 0 1.07736 -17.6926 -5.18708)" stroke="orangered"/><g id="e18_group" transform="matrix(0.940366 0 0 0.940366 13.6654 6.95897)"><ellipse id="e6_ellipse" cx="245.71" cy="78.7085" stroke="white" style="stroke-width: 2px; vector-effect: non-scaling-stroke;" rx="7.16703" ry="4.71975" fill="orangered" transform="matrix(0.864171 0 0 0.899443 33.3043 8.07447)"/><ellipse id="e9_ellipse" cx="243.588" cy="78.5337" style="stroke-width: 1px; vector-effect: non-scaling-stroke;" rx="5.94339" ry="3.67092" fill="white" transform="matrix(0.899443 0 0 0.899443 23.7013 7.76002)"/><ellipse id="e7_ellipse" cx="233.39" cy="76.8364" style="stroke-width: 1px; vector-effect: non-scaling-stroke;" rx="18.722" ry="14.1605" fill="orangered" transform="matrix(0.673536 0 0 0.673536 77.0508 25.7264)"/><rect x="224.271" y="67.3306" stroke="white" id="e5_rectangle" style="stroke-width: 1px; vector-effect: non-scaling-stroke;" width="21.4036" height="10.4528" transform="matrix(1.1461 0 0 1.1461 -34.7195 -9.36952)" rx="0" ry="0" fill="white"/><path d="M3.9700658461339486,-4.227327526824013v-1.5000000000000018a2,2,0,0,0,-2,-1.9999999999999982h-4a2,2,0,0,0,-2,1.9999999999999982v3.0000000000000013a2,2,0,0,0,1.9999999999999996,2h4a2,2,0,0,0,2.0000000000000004,-1.7646806314341172Z" id="e10_shape" style="vector-effect: non-scaling-stroke; stroke-width: 1px;" transform="matrix(3.0506 0 0 1.30227 234.35 82.7613)" fill="orangered"/><path d="M232.4077724140559,71.76912657374834q2.8624400364423934,-4.348286772916424,-0.7429233682370011,-5.877834883992563q-4.3701374602175065,-2.0976659809044023,0,-4.370137460217514q-2.6220824761305437,2.622082476130508,1.0488329904522118,3.321304469765302q4.107929212604432,0.26220824761306005,3.583512717378312,2.4035756031196343q-0.15295481110760534,0.677371306333697,-2.1632180428076424,2.775037287238135Z" stroke="orangered" id="e21_path" style="stroke-width: 1px; vector-effect: non-scaling-stroke;" fill="orangered" transform="matrix(0.957343 0 0 1.02732 9.40358 -4.11388)"/><path d="M234.10270470616285,71.0858527460835q2.8401807543402526,-2.9287185743069983,1.6261678802576114,-5.116375327100656q-2.3462076391314213,-2.4229404164360986,1.8793634052942139,-4.623128687853274q-2.6220824761305437,2.622082476130508,-1.5172208898532347,3.574295697401034q2.2647074112583425,1.165748346312128,2.0294237476159083,2.9456996623390808q-0.250403204950743,1.082386571715233,-1.7712564746102544,2.044543288924359Z" stroke="orangered" id="e22_path" style="stroke-width: 1px; vector-effect: non-scaling-stroke;" fill="orangered" transform="matrix(0.652761 0 0 0.652761 83.3439 23.808)"/><path d="M3.875714894360158,-10.62605393826749v-1.5a2,2,0,0,0,-2,-2h-4a2,2,0,0,0,-2,2v3a2,2,0,0,0,2,2h4a2,2,0,0,0,2,-2Z" stroke="white" id="e12_shape" style="vector-effect: non-scaling-stroke; stroke-width: 1px;" transform="matrix(2.53012 0 0 0.443893 234.698 92.7142)" fill="orangered"/></g></g></svg>