<svg xmlns="http://www.w3.org/2000/svg" xmlns:xlink="http://www.w3.org/1999/xlink" width="36px" height="55px" viewBox="205.306 50.39 58.385 89.1508" preserveAspectRatio="xMidYMid meet" zoomAndPan="disable"  ><defs id="svgEditorDefs"><path id="svgEditorClosePathDefs" stroke="black" fill="khaki" style="stroke-width: 1px; vector-effect: non-scaling-stroke;"/></defs><rect id="svgEditorBackground" x="205.32235145568848" y="50.39004373550415" width="58.35322952270508" height="89.15076732635498" style="stroke: none; fill: none;"/><circle id="e1_circle" cx="234.58372497558594" cy="79.18069458007812" style="stroke-width: 0px; vector-effect: non-scaling-stroke; fill-opacity: 1;" r="28.4698" fill="navy" stroke="#006900"/><polyline stroke="black" id="e6_polyline" style="fill: none; stroke-width: 1px; vector-effect: non-scaling-stroke;" points="173.273 80.3063"/><polyline id="e7_polyline" style="stroke-width: 1px; vector-effect: non-scaling-stroke; stroke: none;" points="208.333 90.3243 234.742 139.367 260.75 90.4018" fill="navy"/><circle id="e10_circle" cx="234.16114807128906" cy="77.68839263916016" style="stroke-width: 1px; vector-effect: non-scaling-stroke; stroke: none;" r="18.0347" fill="white" transform="matrix(1.07736 0 0 1.07736 -17.6926 -5.18708)"/><ellipse id="e6_ellipse" cx="244.75459368116748" cy="78.97069387378806" stroke="white" style="stroke-width: 2px; vector-effect: non-scaling-stroke;" rx="7.16703" ry="4.71975" fill="orangered" transform="matrix(0.960784 0 0 1 10.6767 0.349611)"/><ellipse id="e9_ellipse" cx="243.58848571777344" cy="78.53369903564453" style="stroke-width: 1px; vector-effect: non-scaling-stroke;" rx="5.94339" ry="3.67092" fill="white" /><ellipse id="e7_ellipse" cx="233.39" cy="76.8364" style="stroke-width: 1px; vector-effect: non-scaling-stroke;" rx="18.722" ry="14.1605" fill="orangered" transform="matrix(0.748836 0 0 0.748836 59.3141 19.975)"/><rect x="224.066" y="67.1934" stroke="white" id="e5_rectangle" style="stroke-width: 1px; vector-effect: non-scaling-stroke;" width="21.4036" height="10.4528" fill="white" transform="matrix(1.28505 0 0 1.27423 -67.3625 -19.0446)" rx="0" ry="0"/><path d="M3.931410841941627,-4.197144162464383v-1.5000000000000018a2,2,0,0,0,-2,-1.9999999999999982h-4a2,2,0,0,0,-2,1.9999999999999982v3.0000000000000013a2,2,0,0,0,1.9999999999999996,2h4a2,2,0,0,0,2.0000000000000004,-1.7646806314341175Z" id="e10_shape" style="vector-effect: non-scaling-stroke; stroke-width: 1px;" transform="matrix(3.40998 0 0 1.44625 234.292 83.626)" fill="orangered"/><path d="M232.4077724140559,71.76912657374834q2.8624400364423934,-4.348286772916424,-0.7429233682370011,-5.877834883992563q-4.3701374602175065,-2.0976659809044023,0,-4.370137460217514q-2.6220824761305437,2.622082476130508,1.0488329904522118,3.321304469765302q4.107929212604432,0.26220824761306005,3.583512717378312,2.4035756031196343q-0.15295481110760534,0.677371306333697,-2.1632180428076424,2.775037287238135Z" stroke="orangered" id="e21_path" style="stroke-width: 1px; vector-effect: non-scaling-stroke;" fill="orangered" transform="matrix(0.825711 0 0 0.886064 40.2633 6.54852)"/><path d="M234.10270470616285,71.0858527460835q2.8401807543402526,-2.9287185743069983,1.6261678802576114,-5.116375327100656q-2.3462076391314213,-2.4229404164360986,1.8793634052942139,-4.623128687853274q-2.6220824761305437,2.622082476130508,-1.5172208898532347,3.574295697401034q2.2647074112583425,1.165748346312128,2.0294237476159083,2.9456996623390808q-0.250403204950743,1.082386571715233,-1.7712564746102544,2.044543288924359Z" stroke="orangered" id="e22_path" style="stroke-width: 1px; vector-effect: non-scaling-stroke;" fill="orangered" transform="matrix(0.563008 0 0 0.563008 104.037 30.6312)"/><path d="M3.875714894360158,-10.62605393826749v-1.5a2,2,0,0,0,-2,-2h-4a2,2,0,0,0,-2,2v3a2,2,0,0,0,2,2h4a2,2,0,0,0,2,-2Z" stroke="white" id="e12_shape" style="vector-effect: non-scaling-stroke; stroke-width: 1px;" transform="matrix(2.81298 0 0 0.49352 234.586 94.4519)" fill="orangered"/></svg>