<svg xmlns="http://www.w3.org/2000/svg" xmlns:xlink="http://www.w3.org/1999/xlink" width="24px" height="24px" viewBox="0 0 24 24" preserveAspectRatio="xMidYMid meet" zoomAndPan="disable" ><defs id="svgEditorDefs"><path id="svgEditorClosePathDefs" stroke="black" fill="khaki" style="stroke-width: 1px; vector-effect: non-scaling-stroke;"/></defs><rect id="svgEditorBackground" x="-1330.6510009765625" y="-328.6141357421875" width="782.8850708007812" height="811.716552734375" style="stroke: none; fill: none;"/><g id="e20_group" transform="matrix(0.0309796 0 0 0.0309796 41.4574 10.4632)"><circle id="e9_circle" cx="-952.325" cy="48.3769" stroke="black" style="stroke-width: 1px; vector-effect: non-scaling-stroke; fill: none;" r="355.933"/><g id="e21_group" transform="matrix(0.790928 0 0 0.790928 -195.765 -2.49426)"><g id="e22_group" transform="matrix(1 0 0 0.921531 -15.85 -16.055)"><rect x="-703.1016845703125" y="-20.6948299407959" stroke="black" id="e5_rectangle" style="stroke-width: 1px; vector-effect: non-scaling-stroke;" width="16" height="252" fill="black" rx="0" ry="0"/><path d="M-1.1085462947887805,-8.249118489286236l2,8h4l2,-8Z" stroke="black" id="e7_shape" style="vector-effect: non-scaling-stroke; stroke-width: 1px;" transform="matrix(-9.49917 -0.125577 0.125577 -9.49917 -667 235)" fill="black"/><circle id="e6_circle" cx="-693.0000959590379" cy="237" stroke="white" style="stroke-width: 1px; vector-effect: non-scaling-stroke;" r="21.2497" fill="black"/></g><path d="M3.6190476190476204,0v-1.5a2,2,0,0,0,-2,-2h-4a2,2,0,0,0,-2.000000000000001,2v3a2,2,0,0,0,2.000000000000001,2h4a2,2,0,0,0,2,-2Z" stroke="black" id="e3_shape" style="vector-effect: non-scaling-stroke; stroke-width: 1px;" transform="matrix(45.7152 0 0 32.7521 -969.26 56.7286)" fill="black"/><path d="M4,0v-1.5a2,2,0,0,0,-2,-2h-4a2,2,0,0,0,-2,2v3a2,2,0,0,0,2,2h4a2,2,0,0,0,2,-2Z" stroke="black" id="e8_shape" style="vector-effect: non-scaling-stroke; stroke-width: 1px;" transform="matrix(36.7477 0 0 22.0599 -981 67.17)" fill="white"/><rect x="-1225" y="-171" stroke="white" id="e2_rectangle" style="stroke-width: 1px; vector-effect: non-scaling-stroke;" width="460" height="452" fill="black" rx="0" transform="matrix(0.693338 -0.284559 0.720613 0.273789 -336.763 -325.195)" ry="0"/><rect x="-1219.87" y="-167.24" stroke="black" id="e4_rectangle" style="stroke-width: 1px; vector-effect: non-scaling-stroke;" width="460" height="452" fill="white" rx="0" transform="matrix(0.485749 -0.199361 0.504858 0.191815 -534.077 -233.587)" ry="0"/></g></g></svg>