<svg xmlns="http://www.w3.org/2000/svg" xmlns:xlink="http://www.w3.org/1999/xlink" width="36px" height="55px" viewBox="205.322 50.39 58.3532 89.1508" preserveAspectRatio="xMidYMid meet" zoomAndPan="disable"  ><defs id="svgEditorDefs"><path id="svgEditorClosePathDefs" stroke="black" fill="khaki" style="stroke-width: 1px; vector-effect: non-scaling-stroke;"/></defs><rect id="svgEditorBackground" x="205.32235145568848" y="50.39004373550415" width="58.35322952270508" height="89.15076732635498" style="stroke: none; fill: none;"/><circle id="e1_circle" cx="234.58372497558594" cy="79.18069458007812" style="stroke-width: 0px; vector-effect: non-scaling-stroke; fill-opacity: 1;" r="28.4698" fill="navy" stroke="#006900"/><polyline stroke="black" id="e6_polyline" style="fill: none; stroke-width: 1px; vector-effect: non-scaling-stroke;" points="173.273 80.3063"/><polyline id="e7_polyline" style="stroke-width: 1px; vector-effect: non-scaling-stroke;" points="208.333 90.3243 234.742 139.367 260.75 90.4018" fill="navy"/><circle id="e10_circle" cx="234.1611328125" cy="77.68836212158203" style="stroke-width: 1px; vector-effect: non-scaling-stroke; stroke: none;" r="18.0347" fill="white" transform="matrix(1.07736 0 0 1.07736 -17.6926 -5.18708)"/><path d="M4.123374380061051,2.14224272406679v-1.5a2,2,0,0,0,-2,-2h-4a2,2,0,0,0,-2,2v3a2,2,0,0,0,2,2h4a2,2,0,0,0,2,-2Z" id="e10_shape" style="vector-effect: non-scaling-stroke; stroke-width: 1px;" transform="matrix(2.83374 0 0 1.87678 234.221 77.1275)" fill="black" stroke="black"/><path d="M3.8526529734965873,3.0091537941406363v-1.5000000000000004a2,2,0,0,0,-2,-2h-4a2,2,0,0,0,-2,2v3a2,2,0,0,0,2,2h4a2,2,0,0,0,2,-2Z" id="e11_shape" style="vector-effect: non-scaling-stroke; stroke-width: 1px;" transform="matrix(2.35427 0 0 1.40102 234.808 77.1442)" fill="white"/><rect x="227.50936889648438" y="72.31517028808592" stroke="black" id="e8_rectangle" style="stroke-width: 1px; vector-effect: non-scaling-stroke;" width="12.9127" height="13.2432" fill="black" transform="matrix(1.29383 -0.558969 1.14989 0.628937 -159.07 155.752)" rx="0" ry="0"/><rect x="228.62738037109372" y="74.83500671386716" id="e9_rectangle" style="stroke-width: 1px; vector-effect: non-scaling-stroke;" width="13.0215" height="12.9636" fill="white" transform="matrix(0.966708 -0.412983 0.859164 0.464677 -62.6334 134.04)" rx="0" ry="0"/><rect x="248.30824279785153" y="75.21237182617188" stroke="black" id="e12_rectangle" style="stroke-width: 1px; vector-effect: non-scaling-stroke;" width="1.0488329719094338" height="8.041052784639248" fill="black"/><path d="M0.3999999614892431,0.7999999229792258l-2,8h8l-2,-8Z" stroke="black" id="e14_shape" style="vector-effect: non-scaling-stroke; stroke-width: 1px;" transform="matrix(0.437014 0 0 0.437014 247.784 83.603)" fill="black"/><circle id="e13_circle" cx="248.83264160156247" cy="83.60302734375" stroke="white" style="stroke-width: 1px; vector-effect: non-scaling-stroke;" r="1.236061511282081" fill="black"/></svg>