<svg xmlns="http://www.w3.org/2000/svg" xmlns:xlink="http://www.w3.org/1999/xlink" version="1.1" id="Layer_1" x="0px" y="0px" viewBox="-876.5 -905.606 2937 4288.25" enable-background="new -239.8127 -345.4431 1718.8127 1706.3416" xml:space="preserve"  width="36px" height="55px" preserveAspectRatio="xMidYMid meet"><rect id="svgEditorBackground" x="-876.5" y="-905.6060791015625" width="2937.00390625" height="4288.25439453125" style="stroke: none; fill: none;"/><polyline id="e5_polyline" style="stroke-width: 1px; vector-effect: non-scaling-stroke;" points="-662.631 1142.06 626.469 3354.91 1881.15 1148.91"  fill="mediumblue"/><circle id="e4_circle" cx="612.6998730323544" cy="514.800025002523" style="stroke-width: 1px; vector-effect: non-scaling-stroke;" r="1417.92" fill="mediumblue"/><circle id="e3_circle" cx="626.4000661253947" cy="500.7998613173313" style="stroke-width: 1px; vector-effect: non-scaling-stroke;" r="994.947" fill="white" />
<g>
	
	
	
	
	
	
	
	
	
	
	
	
	
	
	
	
	
	
	
	
	
<linearGradient id="SVGID_1_" gradientUnits="userSpaceOnUse" x1="842.4403" y1="-283.3051" x2="687.6652" y2="277.9878">
		<stop offset="0" style="stop-color:#22B414"/>
		<stop offset="1" style="stop-color:#15780C"/>
	</linearGradient><linearGradient id="SVGID_2_" gradientUnits="userSpaceOnUse" x1="558.4703" y1="278.1238" x2="386.7678" y2="-286.4413">
		<stop offset="0" style="stop-color:#C3161D"/>
		<stop offset="1" style="stop-color:#ED1D25"/>
	</linearGradient><linearGradient id="SVGID_3_" gradientUnits="userSpaceOnUse" x1="803.7122" y1="351.4126" x2="1219.5538" y2="-48.5785">
		<stop offset="0" style="stop-color:#182291"/>
		<stop offset="1" style="stop-color:#2288D8"/>
	</linearGradient><linearGradient id="SVGID_4_" gradientUnits="userSpaceOnUse" x1="440.988" y1="352.7705" x2="18.6197" y2="-42.5587">
		<stop offset="0" style="stop-color:#F36722"/>
		<stop offset="1" style="stop-color:#FAB020"/>
	</linearGradient><linearGradient id="SVGID_5_" gradientUnits="userSpaceOnUse" x1="855.6855" y1="477.6585" x2="1421.3362" y2="356.5142">
		<stop offset="0" style="stop-color:#89085A"/>
		<stop offset="1" style="stop-color:#A1116A"/>
	</linearGradient><linearGradient id="SVGID_6_" gradientUnits="userSpaceOnUse" x1="384.5026" y1="474.5992" x2="-183.0326" y2="364.6334">
		<stop offset="0" style="stop-color:#89085A"/>
		<stop offset="1" style="stop-color:#A1116A"/>
	</linearGradient><linearGradient id="SVGID_7_" gradientUnits="userSpaceOnUse" x1="844.8014" y1="608.788" x2="1383.7172" y2="813.9117">
		<stop offset="0" style="stop-color:#F36722"/>
		<stop offset="1" style="stop-color:#FAB020"/>
	</linearGradient><linearGradient id="SVGID_8_" gradientUnits="userSpaceOnUse" x1="392.3586" y1="605.4924" x2="-139.0981" y2="825.5341">
		<stop offset="0" style="stop-color:#182291"/>
		<stop offset="1" style="stop-color:#2288D8"/>
	</linearGradient><linearGradient id="SVGID_9_" gradientUnits="userSpaceOnUse" x1="763.7741" y1="717.2092" x2="1122.7405" y2="1178.7375">
		<stop offset="0" style="stop-color:#C3161D"/>
		<stop offset="1" style="stop-color:#ED1D25"/>
	</linearGradient><g>
		<linearGradient id="SVGID_10_" gradientUnits="userSpaceOnUse" x1="471.7666" y1="712.7206" x2="132.3802" y2="1188.2345">
			<stop offset="0" style="stop-color:#15780C"/>
			<stop offset="1" style="stop-color:#22B414"/>
		</linearGradient>
		
		<linearGradient id="SVGID_11_" gradientUnits="userSpaceOnUse" x1="472.7529" y1="713.4245" x2="133.3665" y2="1188.9385">
			<stop offset="0" style="stop-color:#15780C"/>
			<stop offset="1" style="stop-color:#22B414"/>
		</linearGradient>
		
	</g><linearGradient id="SVGID_12_" gradientUnits="userSpaceOnUse" x1="622.2292" y1="716.5002" x2="622.2292" y2="1306.8213" gradientTransform="rotate(0) scale(1.0607 1.0607)">
		<stop offset="0" style="stop-color:#182291"/>
		<stop offset="1" style="stop-color:#2288D8"/>
	</linearGradient><path fill="#FF0000" d="M926.7984043903293,1143.843217085993c-0.26089999999999236,1.8460999999999785,-0.5035000000000309,3.692199999999957,-0.7457000000000562,5.575599999999895c-8.932300000000055,10.666500000000042,-17.36099999999999,21.761799999999994,-26.81529999999998,31.98070000000007c-11.020800000000008,13.407600000000002,-23.402799999999957,25.65910000000008,-35.37459999999999,38.208900000000085c-11.747899999999959,11.897200000000112,-23.551799999999957,23.77579999999989,-35.78470000000004,35.169399999999996c-4.363500000000045,4.326199999999972,-8.428800000000024,9.081300000000056,-13.575500000000034,12.51260000000002c-6.22829999999999,3.3566000000000713,-13.556900000000041,3.3378999999999905,-20.45640000000003,3.524400000000014c-35.93399999999997,0.5407999999999902,-71.86799999999994,-0.6713999999999487,-107.76459999999997,-2.1819000000000415c-6.116499999999974,-0.6712999999999738,-12.792100000000005,-1.939300000000003,-17.006399999999985,-6.806299999999965c-19.188499999999976,-20.363200000000006,-38.63799999999992,-40.502700000000004,-56.72630000000004,-61.85410000000002c-8.783000000000015,-9.155999999999949,-16.484199999999987,-19.281600000000026,-24.241899999999987,-29.295399999999972v-0.00009999999997489795c-7.309700000000021,-8.932099999999991,-14.694099999999935,-18.050700000000006,-19.89689999999996,-28.40009999999984c-1.8833999999999378,-8.03710000000001,5.762299999999982,-14.060399999999845,11.953199999999924,-17.60329999999999c7.291299999999978,-3.8974000000000615,14.190800000000081,-10.90890000000013,23.123100000000022,-9.510300000000143c5.706000000000017,0.7645999999999731,8.316700000000083,6.582599999999957,11.393399999999929,10.722400000000107c5.389400000000023,8.5779,12.120900000000006,16.242099999999937,17.211900000000014,25.02509999999984c12.568499999999972,12.605800000000045,22.041399999999953,28.698699999999917,35.72889999999995,40.334699999999884c1.6780999999999722,-10.05099999999993,3.0019999999999527,-20.176600000000008,5.034800000000018,-30.153099999999995c1.71550000000002,-13.650000000000091,4.885700000000043,-27.07639999999992,6.5452999999999975,-40.72630000000004l1.1748000000000047,0.018600000000105865c0.3730000000000473,-13.202499999999873,4.363500000000045,-25.957499999999982,6.451999999999998,-38.95479999999998c1.808999999999969,-10.349500000000035,3.6550999999999476,-20.717599999999948,6.209600000000023,-30.91780000000017c1.808999999999969,-12.531300000000101,4.736599999999953,-24.857300000000123,7.3659000000000106,-37.23929999999996c2.386700000000019,-15.346900000000005,6.358899999999949,-30.39560000000006,8.652500000000032,-45.76120000000003h1.044399999999996c1.1932000000000471,-16.894699999999943,6.7128999999999905,-33.155399999999986,8.52189999999996,-49.99429999999995c2.2935999999999694,-11.337800000000016,4.2327999999999975,-23.34680000000003,11.002100000000041,-33.02499999999998c3.300700000000006,-4.848299999999995,11.41210000000001,-4.75509999999997,14.50789999999995,0.24239999999997508c6.153599999999983,9.17470000000003,6.824799999999982,20.90409999999997,5.351599999999962,31.551900000000046c1.212099999999964,17.60329999999999,-0.4475999999999658,35.24390000000005,-0.7083999999999833,52.84720000000004c-0.20529999999996562,7.552199999999971,-0.0746000000000322,15.160499999999956,-0.9324000000000296,22.69410000000005c0.24220000000002528,8.913599999999974,-0.1493000000000393,17.845800000000054,-0.8206000000000131,26.740699999999947c-0.09310000000004948,7.906600000000026,-0.6526000000000067,15.794499999999971,-0.42880000000002383,23.719700000000103c3.692199999999957,0.18650000000002365,7.40300000000002,0.037299999999959255,11.095199999999977,-0.48469999999997526c-0.18640000000004875,-10.107099999999946,-0.018400000000042382,-20.21410000000003,0.522199999999998,-30.302400000000034c-0.7273000000000138,-13.277100000000019,-0.3544000000000551,-26.591499999999996,-0.20510000000001583,-39.868600000000015c-0.8017999999999574,-16.37270000000001,-0.0747000000000071,-32.763900000000035,-0.6716000000000122,-49.155200000000036c-0.3728999999999587,-12.363200000000006,-1.603399999999965,-25.957400000000007,5.016399999999976,-36.99680000000001c3.0208999999999833,-5.296000000000049,11.076800000000048,-4.456800000000044,14.209500000000048,0.2983000000000402c10.53589999999997,13.333099999999945,10.8904,31.216199999999958,14.358600000000024,47.15989999999999c2.461599999999976,17.3981,7.514999999999986,34.46079999999995,8.409999999999968,52.04539999999997l1.0071000000000367,0.16790000000003147c2.032699999999977,15.813099999999963,5.426500000000033,31.43979999999999,7.1422000000000025,47.308999999999855c2.3869999999999436,17.584699999999884,5.892500000000041,35.0761,6.657100000000014,52.809999999999945c3.1142999999999574,10.871499999999969,3.002299999999991,22.955199999999877,4.51279999999997,34.311500000000024c1.3799000000000206,12.400699999999915,2.722499999999968,24.838600000000042,3.654800000000023,37.29520000000002c1.2122000000000526,12.288800000000037,2.0884999999999536,24.614900000000034,3.225999999999999,36.90370000000007c9.864599999999996,-7.999900000000025,18.032299999999964,-17.845800000000054,26.293300000000045,-27.44939999999997l1.3613000000000284,0.018700000000080763c3.3378000000000156,-5.7620999999999185,8.27940000000001,-10.312199999999848,12.549800000000005,-15.346900000000005c7.552400000000034,-8.671199999999999,14.134800000000041,-18.125500000000102,21.351400000000012,-27.07639999999992c3.692199999999957,-4.792500000000018,10.7971,-5.594299999999976,15.962499999999977,-2.703999999999951c5.87379999999996,3.1888000000001284,11.300399999999968,7.160799999999881,16.78290000000004,10.98350000000005c4.083600000000047,2.5360999999998057,4.866700000000037,7.570999999999913,6.768800000000056,11.636199999999917ZM720.5375043903293,1290.5811170859931c-18.461400000000026,4.736499999999978,-36.49350000000004,13.929900000000089,-49.17399999999998,28.363200000000006c-11.449499999999944,10.554399999999987,-19.691800000000057,24.708000000000084,-23.066900000000032,39.924400000000105c-6.321800000000053,28.661399999999958,4.102399999999989,59.579099999999926,24.185899999999947,80.52040000000011c17.249000000000024,19.747800000000097,42.83349999999996,32.72640000000001,69.27570000000003,32.65190000000007c17.677900000000022,0.8391999999998916,36.5308,-3.2260000000001128,50.85209999999995,-13.911100000000033c4.363699999999994,-1.3798999999999069,7.813200000000052,-4.54989999999998,11.37519999999995,-7.272500000000036c8.801600000000008,-7.216599999999971,17.43520000000001,-15.123199999999997,22.824700000000007,-25.286100000000033c23.085500000000025,-30.899200000000064,21.313999999999965,-78.61840000000007,-6.0978000000000065,-106.38460000000009c-25.025199999999927,-26.666200000000117,-64.89379999999994,-37.5005000000001,-100.17489999999987,-28.605600000000095Z" transform="matrix(-2.59099 0.071843 -0.071843 -2.59099 2625.11 3469.35)" id="e6_path"/></g>
</svg>