<svg xmlns="http://www.w3.org/2000/svg" xmlns:xlink="http://www.w3.org/1999/xlink" width="36px" height="55px" viewBox="205.322 50.39 58.3532 89.1508" preserveAspectRatio="xMidYMid meet" zoomAndPan="disable" ><defs id="svgEditorDefs"><path id="svgEditorClosePathDefs" stroke="black" fill="khaki" style="stroke-width: 1px; vector-effect: non-scaling-stroke;"/></defs><rect id="svgEditorBackground" x="205.32235145568848" y="50.39004373550415" width="58.35322952270508" height="89.15076732635498" style="stroke: none; fill: none;"/><circle id="e1_circle" cx="234.58372497558594" cy="79.18069458007812" style="stroke-width: 0px; vector-effect: non-scaling-stroke; fill-opacity: 1;" r="28.4698" fill="navy" stroke="#006900"/><polyline stroke="black" id="e6_polyline" style="fill: none; stroke-width: 1px; vector-effect: non-scaling-stroke;" points="173.273 80.3063"/><polyline id="e7_polyline" style="stroke-width: 1px; vector-effect: non-scaling-stroke;" points="208.333 90.3243 234.742 139.367 260.75 90.4018" fill="navy"/><circle id="e10_circle" cx="234.16114817552" cy="77.68835200985738" style="stroke-width: 1px; vector-effect: non-scaling-stroke; stroke: none;" r="18.0347" fill="white" transform="matrix(1.07736 0 0 1.07736 -17.6926 -5.18708)"/><path d="M1.6666666202125953,-3.6666667396658994v-1.5a2,2,0,0,0,-2,-2h-4a2,2,0,0,0,-2.000000000000001,2v3a2,2,0,0,0,2.000000000000001,2h4a2,2,0,0,0,2,-2Z" id="e1_shape" style="vector-effect: non-scaling-stroke; stroke-width: 1px;" transform="matrix(2.0303 0 0 1.8134 242.13 79.7867)" fill="deepskyblue"/><path d="M0.3945002419656012,-4.040623290750227v-1.5a2,2,0,0,0,-2,-2h-4a2,2,0,0,0,-2.000000000000001,2v3a2,2,0,0,0,2.000000000000001,2h4a2,2,0,0,0,2,-2Z" id="e3_shape" style="vector-effect: non-scaling-stroke; stroke-width: 1px;" transform="matrix(1.19236 0 0 0.87993 238.022 76.6633)" fill="white"/><rect x="227.965" y="67.2608" id="e2_rectangle" style="stroke-width: 1px; vector-effect: non-scaling-stroke;" width="6.28521" height="20.0134" fill="deepskyblue" transform="matrix(1.21819 0 0 1.21819 -51.4702 -15.1457)" ry="0" rx="0"/></svg>