<svg xmlns="http://www.w3.org/2000/svg" xmlns:xlink="http://www.w3.org/1999/xlink" width="24px" height="24px" viewBox="0 0 24 24" preserveAspectRatio="xMidYMid meet" zoomAndPan="disable"  ><defs id="svgEditorDefs"><path id="svgEditorClosePathDefs" stroke="black" fill="khaki" style="stroke-width: 1px; vector-effect: non-scaling-stroke;"/></defs><rect id="svgEditorBackground" x="205.32235145568848" y="50.39004373550415" width="58.35322952270508" height="89.15076732635498" style="stroke: none; fill: none;"/><polyline stroke="black" id="e6_polyline" style="fill: none; stroke-width: 1px; vector-effect: non-scaling-stroke;" points="173.273 80.3063"/><g id="e4_group" transform="matrix(0.672587 0 0 0.672587 -146.153 -40.1762)"><path d="M1.4728285967862438,-3.666666739665903v-1.5a2,2,0,0,0,-2.0000000000000004,-2h-4a2,2,0,0,0,-2.0000000000000018,2v3a2,2,0,0,0,2.0000000000000018,2h4a2,2,0,0,0,2.0000000000000004,-2Z" id="e1_shape" style="vector-effect: non-scaling-stroke; stroke-width: 1px;" transform="matrix(1.85947 0 0 1.66082 241.888 78.5278)" fill="deepskyblue"/><path d="M0.3945002419656012,-4.040623290750227v-1.5a2,2,0,0,0,-2,-2h-4a2,2,0,0,0,-2.000000000000001,2v3a2,2,0,0,0,2.000000000000001,2h4a2,2,0,0,0,2,-2Z" id="e3_shape" style="vector-effect: non-scaling-stroke; stroke-width: 1px;" transform="matrix(1.09204 0 0 0.805894 238.126 75.6672)" fill="white"/><rect x="227.965" y="67.2608413696289" id="e2_rectangle" style="stroke-width: 1px; vector-effect: non-scaling-stroke;" width="6.28521" height="20.0134" fill="deepskyblue" transform="matrix(1.11569 0 0 1.11569 -27.0095 -8.41721)" ry="0" rx="0"/></g><circle id="e6_circle" cx="12" cy="12.06060791015625" stroke="deepskyblue" style="stroke-width: 1px; vector-effect: non-scaling-stroke; fill: none;" r="11.4658"/></svg>