<svg xmlns="http://www.w3.org/2000/svg" xmlns:xlink="http://www.w3.org/1999/xlink" width="36px" height="55px" viewBox="205.322 50.39 58.3532 89.1508" preserveAspectRatio="xMidYMid meet" zoomAndPan="disable"  ><defs id="svgEditorDefs"><path id="svgEditorClosePathDefs" stroke="black" fill="khaki" style="stroke-width: 1px; vector-effect: non-scaling-stroke;"/></defs><rect id="svgEditorBackground" x="205.32235145568848" y="50.39004373550415" width="58.35322952270508" height="89.15076732635498" style="stroke: none; fill: none;"/><polyline id="e7_polyline" style="stroke-width: 1px; vector-effect: non-scaling-stroke; stroke: none;" points="208.333 90.3243 234.742 139.367 260.75 90.4018" fill="navy" /><circle id="e1_circle" cx="234.4034868953204" cy="79.18072256993766" style="stroke-width: 0px; vector-effect: non-scaling-stroke; fill-opacity: 1;" r="28.4698" fill="navy" stroke="#006900"/><circle id="e74_circle" cx="234.53121948242188" cy="78.62885284423828" stroke="black" style="stroke-width: 1px; vector-effect: non-scaling-stroke;" r="20.952936811515347" fill="white"/><circle id="e42_circle" cx="241.517" cy="80.748" style="stroke-width: 1px; vector-effect: non-scaling-stroke;" r="5.64864" fill="green" transform="matrix(1.04362 0 0 1.13152 -11.3021 -9.04869)"/><polyline stroke="black" id="e6_polyline" style="fill: none; stroke-width: 1px; vector-effect: non-scaling-stroke;" points="173.273 80.3063"/><circle id="e44_circle" cx="229.948" cy="80.6535" style="stroke-width: 1px; vector-effect: non-scaling-stroke;" r="5.64864" fill="gold" transform="matrix(1.04362 0 0 1.13152 -11.3021 -9.04869)"/><circle id="e43_circle" cx="242.543" cy="81.1575" style="stroke-width: 1px; vector-effect: non-scaling-stroke;" r="4.47121" fill="white" transform="matrix(1.00154 0 0 1.08589 -2.07879 -5.90178)"/><circle id="e45_circle" cx="230.487" cy="81.0591" style="stroke-width: 1px; vector-effect: non-scaling-stroke;" r="4.47121" fill="white" transform="matrix(1.00154 0 0 1.08589 -2.07879 -5.90178)"/><circle id="e38_circle" cx="235.473" cy="74.8925" style="stroke-width: 1px; vector-effect: non-scaling-stroke;" r="5.64864" fill="black" transform="matrix(1.04362 0 0 1.13152 -11.3021 -9.04869)"/><circle id="e39_circle" cx="236.244" cy="75.056" style="stroke-width: 1px; vector-effect: non-scaling-stroke;" r="4.47121" fill="white" transform="matrix(1.00154 0 0 1.08589 -2.07879 -5.90178)"/><circle id="e40_circle" cx="247.373" cy="75.0814" style="stroke-width: 1px; vector-effect: non-scaling-stroke;" r="5.64864" fill="red" transform="matrix(1.04362 0 0 1.13152 -11.3021 -9.04869)"/><path d="M234.9111692466312,79.03162743775738q0.9235287656687774,0.3829265613748589,1.3740306025804045,-0.022525091845579936q0.15767564291908798,-2.410184827477039,1.9596829905655113,-3.6040146952927614q0.29282619399251075,-0.2477760103013793,0.4505018369115703,-1.3515055107347962q-3.446339052373787,1.3064553270436363,-3.8067405219030377,4.932995114181978Z" id="e70_path" style="stroke-width: 1px; vector-effect: non-scaling-stroke;" fill="green" transform="matrix(1.09392 0 0 1.18606 -22.1314 -11.6678)"/><circle id="e41_circle" cx="248.644" cy="75.2528" style="stroke-width: 1px; vector-effect: non-scaling-stroke;" r="4.47121" fill="white" transform="matrix(1.00154 0 0 1.08589 -2.07879 -5.90178)"/><path d="M240.50264934557634,73.86999934176878q-0.06757527553671139,0.6532276635218182,0.1351505510734512,1.2163549596613024q2.7030110214695924,0.4279767450660188,3.55896451160163,2.3651346437858933q0.720802939058558,0.3829265613748447,1.261405143352448,0.33787637768368484q-1.0586793167422286,-3.5139143279104417,-4.955520206027529,-3.9418910729764605Z" id="e64_path" style="stroke-width: 1px; vector-effect: non-scaling-stroke;" fill="green" transform="matrix(1.09392 0 0 1.18606 -22.1314 -11.6678)"/><path d="M229.1162154176358,73.75737388254088q-0.06757527553671139,0.7883782145952978,0.1351505510734512,1.2163549596613024q2.950787031771,0.022525091845579936,4.122091807741157,2.455235011168213q0.8109033064409061,0.29282619399252496,1.3515055107347678,0.2477760103013651q-1.0586793167422286,-3.5139143279104417,-5.090670757101037,-3.9193659811308805Z" id="e72_path" style="stroke-width: 1px; vector-effect: non-scaling-stroke;" fill="gold" transform="matrix(1.09392 0 0 1.18606 -22.1314 -11.6678)"/><circle id="e33_circle" cx="223.951" cy="74.7037" style="stroke-width: 1px; vector-effect: non-scaling-stroke;" r="5.64864" fill="deepskyblue" transform="matrix(1.04362 0 0 1.13152 -11.3021 -9.04869)"/><circle id="e34_circle" cx="224.238" cy="74.8592" style="stroke-width: 1px; vector-effect: non-scaling-stroke;" r="4.47121" fill="white" transform="matrix(1.00154 0 0 1.08589 -2.07882 -5.90178)"/><path d="M223.64862332384124,78.94152707037506q0.9235287656687774,0.3829265613748589,1.6443317047273354,-0.04505018369115987q-0.270301102146874,-2.477760103013779,1.6668567965730006,-3.6265397871383414q0.56312729613947,-0.022525091845579936,0.7208029390585295,-1.5767564291905956q-3.8743157974397775,1.3515055107347962,-3.7842154300574578,5.248346400020097Z" id="e73_path" style="stroke-width: 1px; vector-effect: non-scaling-stroke;" fill="gold" transform="matrix(1.09392 0 0 1.18606 -22.1314 -11.6678)"/></svg>