<svg xmlns="http://www.w3.org/2000/svg" xmlns:xlink="http://www.w3.org/1999/xlink" width="24px" height="24px" viewBox="0 0 24 24" preserveAspectRatio="xMidYMid meet" zoomAndPan="disable"  ><defs id="svgEditorDefs"><path id="svgEditorClosePathDefs" stroke="black" fill="khaki" style="stroke-width: 1px; vector-effect: non-scaling-stroke;"/></defs><rect id="svgEditorBackground" x="0" y="0" width="24" height="24" style="stroke: none; fill: none;"/><g id="e28_group" transform="matrix(0.544371 0 0 0.544371 -115.795 -30.9016)"><circle id="e74_circle" cx="235" cy="79" style="stroke-width: 1px; vector-effect: non-scaling-stroke; fill: none;" r="20" stroke="black" /><circle id="e42_circle" cx="241.517" cy="80.748" style="stroke-width: 1px; vector-effect: non-scaling-stroke;" r="5.64864" fill="green" transform="matrix(0.800928 0 0 0.868388 46.0669 11.0411)"/><circle id="e44_circle" cx="229.948" cy="80.6535" style="stroke-width: 1px; vector-effect: non-scaling-stroke;" r="5.64864" fill="gold" transform="matrix(0.800928 0 0 0.868388 46.0669 11.0411)"/><circle id="e43_circle" cx="242.543" cy="81.1575" style="stroke-width: 1px; vector-effect: non-scaling-stroke;" r="4.47121" fill="white" transform="matrix(0.768634 0 0 0.833369 53.1453 13.4562)"/><circle id="e45_circle" cx="230.487" cy="81.0591" style="stroke-width: 1px; vector-effect: non-scaling-stroke;" r="4.47121" fill="white" transform="matrix(0.768634 0 0 0.833369 53.1453 13.4562)"/><circle id="e38_circle" cx="235.473" cy="74.8925" style="stroke-width: 1px; vector-effect: non-scaling-stroke;" r="5.64864" fill="black" transform="matrix(0.800928 0 0 0.868388 46.0669 11.0411)"/><circle id="e39_circle" cx="236.244" cy="75.056" style="stroke-width: 1px; vector-effect: non-scaling-stroke;" r="4.47121" fill="white" transform="matrix(0.768634 0 0 0.833369 53.1453 13.4562)"/><circle id="e40_circle" cx="247.373" cy="75.0814" style="stroke-width: 1px; vector-effect: non-scaling-stroke;" r="5.64864" fill="red" transform="matrix(0.800928 0 0 0.868388 46.0669 11.0411)"/><path d="M234.9111692466312,79.03162743775738q0.9235287656687774,0.3829265613748589,1.3740306025804045,-0.022525091845579936q0.15767564291908798,-2.410184827477039,1.9596829905655113,-3.6040146952927614q0.29282619399251075,-0.2477760103013793,0.4505018369115703,-1.3515055107347962q-3.446339052373787,1.3064553270436363,-3.8067405219030377,4.932995114181978Z" id="e70_path" style="stroke-width: 1px; vector-effect: non-scaling-stroke;" fill="green" transform="matrix(0.839531 0 0 0.910244 37.7559 9.03105)"/><circle id="e41_circle" cx="248.644" cy="75.2528" style="stroke-width: 1px; vector-effect: non-scaling-stroke;" r="4.47121" fill="white" transform="matrix(0.768634 0 0 0.833369 53.1453 13.4562)"/><path d="M240.50264934557634,73.86999934176878q-0.06757527553671139,0.6532276635218182,0.1351505510734512,1.2163549596613024q2.7030110214695924,0.4279767450660188,3.55896451160163,2.3651346437858933q0.720802939058558,0.3829265613748447,1.261405143352448,0.33787637768368484q-1.0586793167422286,-3.5139143279104417,-4.955520206027529,-3.9418910729764605Z" id="e64_path" style="stroke-width: 1px; vector-effect: non-scaling-stroke;" fill="green" transform="matrix(0.839531 0 0 0.910244 37.7559 9.03105)"/><path d="M229.1162154176358,73.75737388254088q-0.06757527553671139,0.7883782145952978,0.1351505510734512,1.2163549596613024q2.950787031771,0.022525091845579936,4.122091807741157,2.455235011168213q0.8109033064409061,0.29282619399252496,1.3515055107347678,0.2477760103013651q-1.0586793167422286,-3.5139143279104417,-5.090670757101037,-3.9193659811308805Z" id="e72_path" style="stroke-width: 1px; vector-effect: non-scaling-stroke;" fill="gold" transform="matrix(0.839531 0 0 0.910244 37.7559 9.03105)"/><circle id="e33_circle" cx="223.951" cy="74.7037" style="stroke-width: 1px; vector-effect: non-scaling-stroke;" r="5.64864" fill="deepskyblue" transform="matrix(0.800928 0 0 0.868388 46.0669 11.0411)"/><circle id="e34_circle" cx="224.238" cy="74.8592" style="stroke-width: 1px; vector-effect: non-scaling-stroke;" r="4.47121" fill="white" transform="matrix(0.768634 0 0 0.833369 53.1453 13.4562)"/><path d="M223.64862332384124,78.94152707037506q0.9235287656687774,0.3829265613748589,1.6443317047273354,-0.04505018369115987q-0.270301102146874,-2.477760103013779,1.6668567965730006,-3.6265397871383414q0.56312729613947,-0.022525091845579936,0.7208029390585295,-1.5767564291905956q-3.8743157974397775,1.3515055107347962,-3.7842154300574578,5.248346400020097Z" id="e73_path" style="stroke-width: 1px; vector-effect: non-scaling-stroke;" fill="gold" transform="matrix(0.839531 0 0 0.910244 37.7559 9.03105)"/></g><polyline stroke="black" id="e6_polyline" style="fill: none; stroke-width: 1px; vector-effect: non-scaling-stroke;" points="173.273 80.3063"/></svg>